# xmcd
#
# Track frame offsets: 
#        150
#        25486
#        45704
#        74519
#        96036
#        112504
#        132491
#        150384
#        173109
#        210952
#        230398
#        250348
#
# Disc length: 3601 seconds
#
# Revision: 0
# Processed by: cddbd v1.5.2PL0 Copyright (c) Steve Scherf et al.
# Submitted via: ExactAudioCopyFreeDBPlugin 1.0
#
DISCID=960e0f0c
DTITLE=Super Chikan - Organic Chikan - Free Range Rooster
DYEAR=2015
DGENRE=Blues
TTITLE0=Rooster Juice
TTITLE1=Free Range
TTITLE2=Twerk It
TTITLE3=Tired Of The Blues
TTITLE4=In The Mean Time
TTITLE5=Work Train
TTITLE6=Take Me In Your Kitchen
TTITLE7=Blood, Fight And Wooze
TTITLE8=The Untold Story
TTITLE9=Symptoms Of A True Bluesman
TTITLE10=Tel Aviv
TTITLE11=African Style
EXTD=
EXTT0=
EXTT1=
EXTT2=
EXTT3=
EXTT4=
EXTT5=
EXTT6=
EXTT7=
EXTT8=
EXTT9=
EXTT10=
EXTT11=
PLAYORDER=
